<svg width="355" height="48" viewBox="0 0 355 48" fill="none" xmlns="http://www.w3.org/2000/svg">
<rect opacity="0.3" x="0.5" y="0.5" width="349" height="47" rx="23.5" stroke="#141414"/>
<rect x="250" width="105" height="48" rx="24" fill="#FC8A11"/>
<path d="M286.036 29V19.2H289.2C289.965 19.2 290.591 19.326 291.076 19.578C291.561 19.83 291.921 20.1753 292.154 20.614C292.387 21.0527 292.504 21.538 292.504 22.07C292.504 22.686 292.336 23.2413 292 23.736C291.673 24.2307 291.16 24.5807 290.46 24.786L292.602 29H291.216L289.228 24.954H289.144H287.212V29H286.036ZM287.212 24.03H289.116C289.872 24.03 290.423 23.848 290.768 23.484C291.113 23.12 291.286 22.6533 291.286 22.084C291.286 21.5053 291.113 21.048 290.768 20.712C290.432 20.3667 289.877 20.194 289.102 20.194H287.212V24.03ZM296.403 29.168C295.74 29.168 295.152 29.0187 294.639 28.72C294.126 28.412 293.72 27.9873 293.421 27.446C293.132 26.9047 292.987 26.2653 292.987 25.528C292.987 24.8 293.132 24.1653 293.421 23.624C293.71 23.0733 294.112 22.6487 294.625 22.35C295.148 22.042 295.75 21.888 296.431 21.888C297.103 21.888 297.682 22.042 298.167 22.35C298.662 22.6487 299.04 23.0453 299.301 23.54C299.562 24.0347 299.693 24.5667 299.693 25.136C299.693 25.2387 299.688 25.3413 299.679 25.444C299.679 25.5467 299.679 25.6633 299.679 25.794H294.149C294.177 26.326 294.298 26.7693 294.513 27.124C294.737 27.4693 295.012 27.7307 295.339 27.908C295.675 28.0853 296.03 28.174 296.403 28.174C296.888 28.174 297.294 28.062 297.621 27.838C297.948 27.614 298.186 27.3107 298.335 26.928H299.497C299.31 27.572 298.951 28.1087 298.419 28.538C297.896 28.958 297.224 29.168 296.403 29.168ZM296.403 22.882C295.843 22.882 295.344 23.0547 294.905 23.4C294.476 23.736 294.228 24.2307 294.163 24.884H298.531C298.503 24.2587 298.288 23.7687 297.887 23.414C297.486 23.0593 296.991 22.882 296.403 22.882ZM303.884 29.168C303.221 29.168 302.624 29.0187 302.092 28.72C301.569 28.412 301.154 27.9873 300.846 27.446C300.547 26.8953 300.398 26.256 300.398 25.528C300.398 24.8 300.547 24.1653 300.846 23.624C301.154 23.0733 301.569 22.6487 302.092 22.35C302.624 22.042 303.221 21.888 303.884 21.888C304.705 21.888 305.396 22.1027 305.956 22.532C306.525 22.9613 306.884 23.5353 307.034 24.254H305.83C305.736 23.8247 305.508 23.4933 305.144 23.26C304.78 23.0173 304.355 22.896 303.87 22.896C303.478 22.896 303.109 22.994 302.764 23.19C302.418 23.386 302.138 23.68 301.924 24.072C301.709 24.464 301.602 24.9493 301.602 25.528C301.602 26.1067 301.709 26.592 301.924 26.984C302.138 27.376 302.418 27.6747 302.764 27.88C303.109 28.076 303.478 28.174 303.87 28.174C304.355 28.174 304.78 28.0573 305.144 27.824C305.508 27.5813 305.736 27.2407 305.83 26.802H307.034C306.894 27.502 306.539 28.0713 305.97 28.51C305.4 28.9487 304.705 29.168 303.884 29.168ZM310.426 29.168C309.847 29.168 309.367 29.07 308.984 28.874C308.601 28.678 308.317 28.4167 308.13 28.09C307.943 27.7633 307.85 27.4087 307.85 27.026C307.85 26.3167 308.121 25.7707 308.662 25.388C309.203 25.0053 309.941 24.814 310.874 24.814H312.75V24.73C312.75 24.1233 312.591 23.666 312.274 23.358C311.957 23.0407 311.532 22.882 311 22.882C310.543 22.882 310.146 22.9987 309.81 23.232C309.483 23.456 309.278 23.7873 309.194 24.226H307.99C308.037 23.722 308.205 23.2973 308.494 22.952C308.793 22.6067 309.161 22.3453 309.6 22.168C310.039 21.9813 310.505 21.888 311 21.888C311.971 21.888 312.699 22.1493 313.184 22.672C313.679 23.1853 313.926 23.8713 313.926 24.73V29H312.876L312.806 27.754C312.61 28.146 312.321 28.482 311.938 28.762C311.565 29.0327 311.061 29.168 310.426 29.168ZM310.608 28.174C311.056 28.174 311.439 28.0573 311.756 27.824C312.083 27.5907 312.33 27.2873 312.498 26.914C312.666 26.5407 312.75 26.1487 312.75 25.738V25.724H310.972C310.281 25.724 309.791 25.8453 309.502 26.088C309.222 26.3213 309.082 26.6153 309.082 26.97C309.082 27.334 309.213 27.628 309.474 27.852C309.745 28.0667 310.123 28.174 310.608 28.174ZM315.13 29V18.92H316.306V29H315.13ZM317.674 29V18.92H318.85V29H317.674Z" fill="white"/>
<path d="M24.882 25.43V24.436H27.556V21.888H28.606V24.436H31.28V25.43H28.606V27.992H27.556V25.43H24.882ZM38.8352 29.168C38.2099 29.168 37.6452 29.056 37.1412 28.832C36.6372 28.5987 36.2312 28.2533 35.9232 27.796C35.6245 27.3387 35.4659 26.7693 35.4472 26.088H36.6372C36.6465 26.648 36.8425 27.1333 37.2252 27.544C37.6079 27.9453 38.1445 28.146 38.8352 28.146C39.5259 28.146 40.0439 27.9547 40.3892 27.572C40.7439 27.1893 40.9212 26.7273 40.9212 26.186C40.9212 25.7287 40.8092 25.3553 40.5852 25.066C40.3705 24.7767 40.0765 24.562 39.7032 24.422C39.3392 24.282 38.9379 24.212 38.4992 24.212H37.7712V23.218H38.4992C39.1339 23.218 39.6285 23.0733 39.9832 22.784C40.3472 22.4947 40.5292 22.0887 40.5292 21.566C40.5292 21.1273 40.3845 20.768 40.0952 20.488C39.8152 20.1987 39.3952 20.054 38.8352 20.054C38.2939 20.054 37.8599 20.2173 37.5332 20.544C37.2065 20.8613 37.0245 21.2627 36.9872 21.748H35.7972C35.8252 21.216 35.9652 20.7447 36.2172 20.334C36.4785 19.9233 36.8332 19.606 37.2812 19.382C37.7292 19.1487 38.2472 19.032 38.8352 19.032C39.4699 19.032 39.9972 19.144 40.4172 19.368C40.8465 19.592 41.1685 19.8907 41.3832 20.264C41.6072 20.6373 41.7192 21.048 41.7192 21.496C41.7192 21.9907 41.5839 22.4433 41.3132 22.854C41.0425 23.2553 40.6365 23.526 40.0952 23.666C40.6739 23.7873 41.1545 24.0627 41.5372 24.492C41.9199 24.9213 42.1112 25.486 42.1112 26.186C42.1112 26.7273 41.9852 27.2267 41.7332 27.684C41.4905 28.132 41.1265 28.4913 40.6412 28.762C40.1559 29.0327 39.5539 29.168 38.8352 29.168ZM46.6877 29.168C46.0437 29.168 45.465 29.0513 44.9517 28.818C44.4383 28.5753 44.0323 28.244 43.7337 27.824C43.4443 27.3947 43.2997 26.9 43.2997 26.34C43.2997 25.7427 43.4723 25.206 43.8177 24.73C44.1723 24.254 44.639 23.9367 45.2177 23.778C44.6857 23.6007 44.275 23.316 43.9857 22.924C43.6963 22.532 43.5517 22.1027 43.5517 21.636C43.5517 21.16 43.6777 20.726 43.9297 20.334C44.1817 19.9327 44.541 19.6153 45.0077 19.382C45.4743 19.1487 46.0343 19.032 46.6877 19.032C47.341 19.032 47.901 19.1487 48.3677 19.382C48.8343 19.6153 49.1937 19.9327 49.4457 20.334C49.6977 20.726 49.8237 21.16 49.8237 21.636C49.8237 22.0933 49.679 22.5227 49.3897 22.924C49.1003 23.316 48.6897 23.6007 48.1577 23.778C48.7363 23.9367 49.1983 24.254 49.5437 24.73C49.8983 25.206 50.0757 25.7427 50.0757 26.34C50.0757 26.9 49.9263 27.3947 49.6277 27.824C49.3383 28.244 48.937 28.5753 48.4237 28.818C47.9103 29.0513 47.3317 29.168 46.6877 29.168ZM46.6877 23.358C47.285 23.358 47.7563 23.2087 48.1017 22.91C48.4563 22.602 48.6337 22.2007 48.6337 21.706C48.6337 21.1553 48.461 20.74 48.1157 20.46C47.7703 20.18 47.2943 20.04 46.6877 20.04C46.081 20.04 45.605 20.18 45.2597 20.46C44.9237 20.74 44.7557 21.1553 44.7557 21.706C44.7557 22.2007 44.9283 22.602 45.2737 22.91C45.619 23.2087 46.0903 23.358 46.6877 23.358ZM46.6877 28.132C47.425 28.132 47.9757 27.964 48.3397 27.628C48.713 27.2827 48.8997 26.83 48.8997 26.27C48.8997 25.6353 48.699 25.1547 48.2977 24.828C47.8963 24.5013 47.3597 24.338 46.6877 24.338C46.0157 24.338 45.479 24.5013 45.0777 24.828C44.6763 25.1547 44.4757 25.6353 44.4757 26.27C44.4757 26.83 44.6577 27.2827 45.0217 27.628C45.395 27.964 45.9503 28.132 46.6877 28.132ZM55.2606 29.168C54.3926 29.168 53.6412 28.958 53.0066 28.538C52.3812 28.1087 51.9006 27.516 51.5646 26.76C51.2286 25.9947 51.0606 25.108 51.0606 24.1C51.0606 23.092 51.2286 22.21 51.5646 21.454C51.9006 20.6887 52.3812 20.096 53.0066 19.676C53.6412 19.2467 54.3926 19.032 55.2606 19.032C56.1286 19.032 56.8752 19.2467 57.5006 19.676C58.1259 20.096 58.6066 20.6887 58.9426 21.454C59.2786 22.21 59.4466 23.092 59.4466 24.1C59.4466 25.108 59.2786 25.9947 58.9426 26.76C58.6066 27.516 58.1259 28.1087 57.5006 28.538C56.8752 28.958 56.1286 29.168 55.2606 29.168ZM55.2606 28.132C55.8299 28.132 56.3386 27.9733 56.7866 27.656C57.2439 27.3293 57.5986 26.8673 57.8506 26.27C58.1119 25.6633 58.2426 24.94 58.2426 24.1C58.2426 23.26 58.1119 22.5413 57.8506 21.944C57.5986 21.3467 57.2439 20.8893 56.7866 20.572C56.3386 20.2453 55.8299 20.082 55.2606 20.082C54.6819 20.082 54.1686 20.2453 53.7206 20.572C53.2726 20.8893 52.9179 21.3467 52.6566 21.944C52.3952 22.5413 52.2646 23.26 52.2646 24.1C52.2646 24.94 52.3952 25.6633 52.6566 26.27C52.9179 26.8673 53.2726 27.3293 53.7206 27.656C54.1686 27.9733 54.6819 28.132 55.2606 28.132ZM66.1667 31.03C65.6627 30.5447 65.196 29.966 64.7667 29.294C64.3374 28.6313 63.992 27.8847 63.7307 27.054C63.4787 26.214 63.3527 25.3087 63.3527 24.338C63.3527 23.3673 63.4787 22.4667 63.7307 21.636C63.992 20.796 64.3374 20.0447 64.7667 19.382C65.196 18.71 65.6627 18.1313 66.1667 17.646H67.3707V17.758C66.512 18.598 65.8214 19.5827 65.2987 20.712C64.7854 21.832 64.5287 23.0407 64.5287 24.338C64.5287 25.6353 64.79 26.8487 65.3127 27.978C65.8354 29.098 66.5214 30.078 67.3707 30.918V31.03H66.1667ZM67.8757 31.03V30.918C68.725 30.078 69.411 29.098 69.9337 27.978C70.4657 26.8487 70.7317 25.6353 70.7317 24.338C70.7317 23.0407 70.4703 21.832 69.9477 20.712C69.425 19.5827 68.739 18.598 67.8897 17.758V17.646H69.0797C69.593 18.1313 70.0597 18.71 70.4797 19.382C70.909 20.0447 71.2497 20.796 71.5017 21.636C71.763 22.4667 71.8937 23.3673 71.8937 24.338C71.8937 25.3087 71.763 26.214 71.5017 27.054C71.2497 27.8847 70.909 28.6313 70.4797 29.294C70.0597 29.966 69.593 30.5447 69.0797 31.03H67.8757Z" fill="#C1BDBD"/>
</svg>
