<svg width="93" height="11" viewBox="0 0 93 11" fill="none" xmlns="http://www.w3.org/2000/svg">
<path d="M3.69068 10L0.106679 0.199999H2.02468L4.79668 8.166L7.58268 0.199999H9.47268L5.88868 10H3.69068ZM10.0777 10V0.199999H16.4757V1.642H11.8697V4.33H16.0557V5.73H11.8697V8.558H16.4757V10H10.0777ZM21.8955 10.168C20.9715 10.168 20.1642 9.958 19.4735 9.538C18.7828 9.118 18.2462 8.53467 17.8635 7.788C17.4808 7.032 17.2895 6.15467 17.2895 5.156C17.2895 4.148 17.4855 3.26133 17.8775 2.496C18.2788 1.72133 18.8435 1.11933 19.5715 0.69C20.3088 0.251333 21.1815 0.0319998 22.1895 0.0319998C23.3375 0.0319998 24.2895 0.307333 25.0455 0.857999C25.8015 1.40867 26.2915 2.16933 26.5155 3.14H24.5135C24.3642 2.68267 24.0935 2.328 23.7015 2.076C23.3095 1.81467 22.8055 1.684 22.1895 1.684C21.2095 1.684 20.4535 1.99667 19.9215 2.622C19.3895 3.238 19.1235 4.08733 19.1235 5.17C19.1235 6.25267 19.3848 7.09267 19.9075 7.69C20.4395 8.278 21.1582 8.572 22.0635 8.572C22.9502 8.572 23.6175 8.334 24.0655 7.858C24.5228 7.37267 24.7982 6.738 24.8915 5.954H22.4135V4.61H26.6975V10H25.0455L24.9055 8.712C24.5882 9.17867 24.1915 9.538 23.7155 9.79C23.2395 10.042 22.6328 10.168 21.8955 10.168ZM32.1636 10.168C31.2396 10.168 30.4323 9.958 29.7416 9.538C29.0509 9.118 28.5143 8.53467 28.1316 7.788C27.7489 7.032 27.5576 6.15467 27.5576 5.156C27.5576 4.148 27.7536 3.26133 28.1456 2.496C28.5469 1.72133 29.1116 1.11933 29.8396 0.69C30.5769 0.251333 31.4496 0.0319998 32.4576 0.0319998C33.6056 0.0319998 34.5576 0.307333 35.3136 0.857999C36.0696 1.40867 36.5596 2.16933 36.7836 3.14H34.7816C34.6323 2.68267 34.3616 2.328 33.9696 2.076C33.5776 1.81467 33.0736 1.684 32.4576 1.684C31.4776 1.684 30.7216 1.99667 30.1896 2.622C29.6576 3.238 29.3916 4.08733 29.3916 5.17C29.3916 6.25267 29.6529 7.09267 30.1756 7.69C30.7076 8.278 31.4263 8.572 32.3316 8.572C33.2183 8.572 33.8856 8.334 34.3336 7.858C34.7909 7.37267 35.0663 6.738 35.1596 5.954H32.6816V4.61H36.9656V10H35.3136L35.1736 8.712C34.8563 9.17867 34.4596 9.538 33.9836 9.79C33.5076 10.042 32.9009 10.168 32.1636 10.168ZM38.1477 10V0.199999H39.9397V10H38.1477ZM41.2791 10V0.199999H47.6771V1.642H43.0711V4.33H47.2571V5.73H43.0711V8.558H47.6771V10H41.2791ZM48.8129 10V0.199999H52.7469C53.7642 0.199999 54.5389 0.437999 55.0709 0.913999C55.6122 1.38067 55.8829 1.98267 55.8829 2.72C55.8829 3.336 55.7149 3.83067 55.3789 4.204C55.0522 4.568 54.6509 4.81533 54.1749 4.946C54.7349 5.058 55.1969 5.338 55.5609 5.786C55.9249 6.22467 56.1069 6.738 56.1069 7.326C56.1069 8.10067 55.8269 8.74 55.2669 9.244C54.7069 9.748 53.9136 10 52.8869 10H48.8129ZM50.6049 4.316H52.4809C52.9849 4.316 53.3722 4.19933 53.6429 3.966C53.9136 3.73267 54.0489 3.40133 54.0489 2.972C54.0489 2.56133 53.9136 2.23933 53.6429 2.006C53.3816 1.76333 52.9849 1.642 52.4529 1.642H50.6049V4.316ZM50.6049 8.544H52.6069C53.1389 8.544 53.5496 8.42267 53.8389 8.18C54.1376 7.928 54.2869 7.578 54.2869 7.13C54.2869 6.67267 54.1329 6.31333 53.8249 6.052C53.5169 5.79067 53.1016 5.66 52.5789 5.66H50.6049V8.544ZM61.6769 10.168C60.6969 10.168 59.8383 9.95333 59.1009 9.524C58.3729 9.09467 57.7989 8.502 57.3789 7.746C56.9683 6.98067 56.7629 6.09867 56.7629 5.1C56.7629 4.10133 56.9683 3.224 57.3789 2.468C57.7989 1.70267 58.3729 1.10533 59.1009 0.676C59.8383 0.246667 60.6969 0.0319998 61.6769 0.0319998C62.6476 0.0319998 63.5016 0.246667 64.2389 0.676C64.9763 1.10533 65.5503 1.70267 65.9609 2.468C66.3716 3.224 66.5769 4.10133 66.5769 5.1C66.5769 6.09867 66.3716 6.98067 65.9609 7.746C65.5503 8.502 64.9763 9.09467 64.2389 9.524C63.5016 9.95333 62.6476 10.168 61.6769 10.168ZM61.6769 8.558C62.6103 8.558 63.3523 8.25 63.9029 7.634C64.4629 7.018 64.7429 6.17333 64.7429 5.1C64.7429 4.02667 64.4629 3.182 63.9029 2.566C63.3523 1.95 62.6103 1.642 61.6769 1.642C60.7436 1.642 59.9969 1.95 59.4369 2.566C58.8769 3.182 58.5969 4.02667 58.5969 5.1C58.5969 6.17333 58.8769 7.018 59.4369 7.634C59.9969 8.25 60.7436 8.558 61.6769 8.558ZM72.1911 10.168C71.2111 10.168 70.3525 9.95333 69.6151 9.524C68.8871 9.09467 68.3131 8.502 67.8931 7.746C67.4825 6.98067 67.2771 6.09867 67.2771 5.1C67.2771 4.10133 67.4825 3.224 67.8931 2.468C68.3131 1.70267 68.8871 1.10533 69.6151 0.676C70.3525 0.246667 71.2111 0.0319998 72.1911 0.0319998C73.1618 0.0319998 74.0158 0.246667 74.7531 0.676C75.4905 1.10533 76.0645 1.70267 76.4751 2.468C76.8858 3.224 77.0911 4.10133 77.0911 5.1C77.0911 6.09867 76.8858 6.98067 76.4751 7.746C76.0645 8.502 75.4905 9.09467 74.7531 9.524C74.0158 9.95333 73.1618 10.168 72.1911 10.168ZM72.1911 8.558C73.1245 8.558 73.8665 8.25 74.4171 7.634C74.9771 7.018 75.2571 6.17333 75.2571 5.1C75.2571 4.02667 74.9771 3.182 74.4171 2.566C73.8665 1.95 73.1245 1.642 72.1911 1.642C71.2578 1.642 70.5111 1.95 69.9511 2.566C69.3911 3.182 69.1111 4.02667 69.1111 5.1C69.1111 6.17333 69.3911 7.018 69.9511 7.634C70.5111 8.25 71.2578 8.558 72.1911 8.558ZM81.4594 10.168C80.7407 10.168 80.106 10.0467 79.5554 9.804C79.0047 9.552 78.5707 9.19733 78.2534 8.74C77.936 8.27333 77.7727 7.70867 77.7634 7.046H79.6534C79.672 7.50333 79.8354 7.89067 80.1434 8.208C80.4607 8.516 80.8947 8.67 81.4454 8.67C81.9214 8.67 82.2994 8.558 82.5794 8.334C82.8594 8.10067 82.9994 7.79267 82.9994 7.41C82.9994 7.00867 82.8734 6.696 82.6214 6.472C82.3787 6.248 82.052 6.066 81.6414 5.926C81.2307 5.786 80.792 5.63667 80.3254 5.478C79.5694 5.21667 78.9907 4.88067 78.5894 4.47C78.1974 4.05933 78.0014 3.51333 78.0014 2.832C77.992 2.25333 78.1274 1.75867 78.4074 1.348C78.6967 0.927999 79.0887 0.605999 79.5834 0.381999C80.078 0.148666 80.6474 0.0319998 81.2914 0.0319998C81.9447 0.0319998 82.5187 0.148666 83.0134 0.381999C83.5174 0.615333 83.9094 0.941999 84.1894 1.362C84.4787 1.782 84.6327 2.28133 84.6514 2.86H82.7334C82.724 2.51467 82.5887 2.21133 82.3274 1.95C82.0754 1.67933 81.7207 1.544 81.2634 1.544C80.8714 1.53467 80.54 1.63267 80.2694 1.838C80.008 2.034 79.8774 2.32333 79.8774 2.706C79.8774 3.03267 79.98 3.294 80.1854 3.49C80.3907 3.67667 80.6707 3.83533 81.0254 3.966C81.38 4.09667 81.786 4.23667 82.2434 4.386C82.7287 4.554 83.172 4.75 83.5734 4.974C83.9747 5.198 84.2967 5.49667 84.5394 5.87C84.782 6.234 84.9034 6.70533 84.9034 7.284C84.9034 7.79733 84.7727 8.27333 84.5114 8.712C84.25 9.15067 83.8627 9.50533 83.3494 9.776C82.836 10.0373 82.206 10.168 81.4594 10.168ZM88.0658 10V1.642H85.2098V0.199999H92.7278V1.642H89.8578V10H88.0658Z" fill="#141414"/>
</svg>
