<svg width="132" height="132" viewBox="0 0 132 132" fill="none" xmlns="http://www.w3.org/2000/svg">
<circle cx="66" cy="66" r="66" fill="#FAF3E7"/>
<path d="M38.8524 69.2034C37.4577 69.5511 36.1742 69.6114 35.0017 69.3843C33.8429 69.1345 32.8608 68.6291 32.0554 67.868C31.25 67.1069 30.687 66.1219 30.3663 64.9129L33.219 64.2016C33.4087 64.8854 33.7298 65.4786 34.1822 65.9815C34.6482 66.4617 35.223 66.7993 35.9065 66.9944C36.6036 67.1669 37.3959 67.1425 38.2834 66.9212C39.0441 66.7315 39.6668 66.4512 40.1514 66.0803C40.6497 65.6867 40.9895 65.2365 41.1709 64.7295C41.3659 64.2 41.3912 63.6454 41.2467 63.0658C41.0751 62.3775 40.7811 61.8544 40.3648 61.4965C39.9485 61.1386 39.4439 60.8893 38.8509 60.7486C38.2534 60.5897 37.5925 60.4852 36.8681 60.4349C36.1438 60.3847 35.381 60.3344 34.5797 60.2841C32.9454 60.1336 31.6599 59.7616 30.7231 59.1679C29.7863 58.5742 29.1599 57.6435 28.8437 56.3756C28.5818 55.3251 28.6073 54.3472 28.9203 53.4419C29.2333 52.5367 29.7974 51.7515 30.6128 51.0865C31.4236 50.4034 32.4448 49.9083 33.6764 49.6013C34.9081 49.2942 36.0422 49.2519 37.0788 49.4744C38.1154 49.6969 38.9957 50.1411 39.7197 50.8071C40.4436 51.4731 40.9388 52.3404 41.2052 53.409L38.3526 54.1202C38.2035 53.5995 37.9457 53.1443 37.5793 52.7547C37.2083 52.347 36.7331 52.0615 36.1537 51.8982C35.5698 51.7167 34.8975 51.7208 34.1368 51.9105C33.5164 52.0459 32.9888 52.2833 32.554 52.6225C32.1192 52.9618 31.8156 53.3646 31.6432 53.8308C31.4709 54.297 31.4615 54.838 31.6151 55.4538C31.7551 56.0153 31.9879 56.4478 32.3137 56.7513C32.6531 57.0322 33.0808 57.243 33.5968 57.3837C34.1309 57.5198 34.733 57.6198 35.403 57.6836C36.0911 57.7429 36.8585 57.8113 37.705 57.8888C38.7236 57.9619 39.6607 58.1323 40.5162 58.3999C41.3672 58.6495 42.0868 59.0664 42.6749 59.6508C43.2812 60.2307 43.7221 61.0731 43.9976 62.1779C44.2279 63.1016 44.2024 64.041 43.9211 64.9961C43.6353 65.9331 43.0779 66.7839 42.2489 67.5485C41.4154 68.295 40.2832 68.8466 38.8524 69.2034ZM59.1254 63.8024L54.3838 44.7846L57.1006 44.1072L61.8423 63.125L59.1254 63.8024ZM47.0355 66.8168L42.2939 47.799L45.0107 47.1216L49.7524 66.1394L47.0355 66.8168ZM47.15 57.6694L46.5945 55.4416L57.0271 52.8404L57.5826 55.0682L47.15 57.6694ZM73.1931 60.6413C71.3275 61.1064 69.5868 61.1075 67.9708 60.6447C66.3503 60.1638 64.9587 59.2892 63.796 58.0208C62.6287 56.7343 61.8013 55.113 61.3136 53.1568C60.8304 51.2188 60.8043 49.4169 61.2355 47.7512C61.6621 46.0673 62.4779 44.6326 63.683 43.4472C64.888 42.2618 66.4233 41.4365 68.2888 40.9714C70.1725 40.5018 71.9246 40.5074 73.545 40.9883C75.1836 41.4647 76.5775 42.3484 77.7266 43.6395C78.8712 44.9124 79.6851 46.5178 80.1683 48.4558C80.6561 50.4119 80.6957 52.2297 80.2871 53.9091C79.8741 55.5703 79.056 56.9959 77.8329 58.1858C76.6233 59.3531 75.0767 60.1716 73.1931 60.6413ZM72.5902 58.2233C73.9305 57.8891 75.0242 57.299 75.8714 56.4529C76.7185 55.6068 77.276 54.5636 77.5439 53.3233C77.8299 52.0785 77.781 50.6863 77.3972 49.1467C77.0133 47.6072 76.4029 46.355 75.566 45.3902C74.7471 44.4208 73.7674 43.7705 72.6267 43.4393C71.4815 43.09 70.2388 43.0824 68.8985 43.4166C67.5763 43.7462 66.4916 44.3341 65.6445 45.1802C64.7928 46.0081 64.224 47.0445 63.938 48.2894C63.6701 49.5297 63.728 50.9196 64.1119 52.4591C64.4957 53.9987 65.0971 55.2531 65.9159 56.2225C66.7529 57.1873 67.7439 57.8444 68.8891 58.1938C70.0343 58.5431 71.268 58.5529 72.5902 58.2233ZM84.4206 57.4956L79.6789 38.4778L86.2265 36.8453C87.7298 36.4705 89.0246 36.417 90.111 36.6848C91.211 36.93 92.1026 37.4195 92.7857 38.1534C93.4689 38.8872 93.9437 39.7885 94.2101 40.8571C94.4675 41.8895 94.4669 42.89 94.2082 43.8587C93.9677 44.8229 93.4239 45.6895 92.5768 46.4586C91.7433 47.2051 90.5658 47.768 89.0444 48.1473L85.2136 49.1025L87.1374 56.8182L84.4206 57.4956ZM84.6514 46.8475L88.3735 45.9195C89.7681 45.5718 90.6875 45.0155 91.1317 44.2506C91.5939 43.4813 91.6964 42.5804 91.439 41.548C91.168 40.4613 90.6524 39.7049 89.8921 39.2788C89.1453 38.8302 88.0747 38.7797 86.68 39.1274L82.958 40.0554L84.6514 46.8475ZM41.2859 97.1075L36.5443 78.0897L39.5056 77.3513L52.6383 89.8619L52.6654 89.8551L48.9602 74.9941L51.677 74.3167L56.4187 93.3345L53.4573 94.0728L40.3247 81.5623L40.2975 81.5691L44.0028 96.4301L41.2859 97.1075ZM67.7618 90.8526C65.8963 91.3177 64.1555 91.3189 62.5396 90.8561C60.9191 90.3752 59.5275 89.5005 58.3648 88.2321C57.1975 86.9456 56.37 85.3243 55.8823 83.3682C55.3991 81.4302 55.3731 79.6283 55.8043 77.9625C56.2309 76.2786 57.0467 74.844 58.2517 73.6586C59.4568 72.4732 60.9921 71.6479 62.8576 71.1828C64.7413 70.7131 66.4933 70.7187 68.1138 71.1997C69.7524 71.6761 71.1463 72.5598 72.2954 73.8508C73.44 75.1237 74.2539 76.7292 74.7371 78.6672C75.2248 80.6233 75.2644 82.441 74.8559 84.1204C74.4429 85.7817 73.6248 87.2073 72.4017 88.3972C71.1921 89.5645 69.6455 90.3829 67.7618 90.8526ZM67.159 88.4346C68.4993 88.1004 69.593 87.5103 70.4402 86.6642C71.2873 85.8182 71.8448 84.775 72.1127 83.5346C72.3987 82.2898 72.3498 80.8976 71.966 79.3581C71.5821 77.8186 70.9717 76.5664 70.1348 75.6015C69.3159 74.6321 68.3362 73.9818 67.1955 73.6506C66.0503 73.3013 64.8076 73.2937 63.4672 73.6279C62.1451 73.9576 61.0604 74.5454 60.2132 75.3915C59.3616 76.2195 58.7927 77.2559 58.5067 78.5007C58.2388 79.741 58.2968 81.1309 58.6807 82.6705C59.0645 84.21 59.6659 85.4645 60.4847 86.4338C61.3216 87.3987 62.3127 88.0558 63.4579 88.4051C64.6031 88.7544 65.8368 88.7643 67.159 88.4346ZM82.0772 86.9371L72.2822 69.1792L75.1892 68.4544L83.1047 83.6509L83.1319 83.6441L83.5842 66.3613L86.5999 65.6094L95.0384 80.7044L95.0655 80.6976L94.9406 63.5299L97.8476 62.8051L97.4545 83.1031L94.0312 83.9566L86.0268 69.9078L85.9996 69.9145L85.4461 86.0971L82.0772 86.9371Z" fill="#FC8A11"/>
</svg>
